<svg version="1.1" viewBox="0.0 0.0 75.59055118110236 75.59055118110236" fill="none" stroke="none" stroke-linecap="square" stroke-miterlimit="10" xmlns:xlink="http://www.w3.org/1999/xlink" xmlns="http://www.w3.org/2000/svg"><clipPath id="p.0"><path d="m0 0l75.59055 0l0 75.59055l-75.59055 0l0 -75.59055z" clip-rule="nonzero"/></clipPath><g clip-path="url(#p.0)"><path fill="none" d="m0 0l75.59055 0l0 75.59055l-75.59055 0z" fill-rule="evenodd"/><path fill="#4a86e8" d="m2.2598426 37.31233l0 0c0 -18.316717 15.715863 -33.16535 35.102364 -33.16535l0 0c9.309723 0 18.238148 3.494197 24.821117 9.713907c6.5829735 6.2197094 10.281246 14.655447 10.281246 23.451445l0 0c0 18.316723 -15.715866 33.165356 -35.102364 33.165356l0 0c-19.3865 0 -35.102364 -14.848633 -35.102364 -33.165356z" fill-rule="evenodd"/><path stroke="#4a86e8" stroke-width="0.09973753280839895" stroke-linejoin="round" stroke-linecap="butt" d="m2.2598426 37.31233l0 0c0 -18.316717 15.715863 -33.16535 35.102364 -33.16535l0 0c9.309723 0 18.238148 3.494197 24.821117 9.713907c6.5829735 6.2197094 10.281246 14.655447 10.281246 23.451445l0 0c0 18.316723 -15.715866 33.165356 -35.102364 33.165356l0 0c-19.3865 0 -35.102364 -14.848633 -35.102364 -33.165356z" fill-rule="evenodd"/><path fill="#ffffff" d="m22.54788 55.725048q-1.515625 0 -2.328125 -0.90625q-0.8125 -0.921875 -0.8125 -2.53125l0 -18.5625q0 -1.671875 0.8125 -2.546873q0.8125 -0.890625 2.328125 -0.890625q1.515625 0 2.34375 0.890625q0.84375 0.8749981 0.84375 2.546873l0 18.5625q0 1.609375 -0.8125 2.53125q-0.8125 0.90625 -2.375 0.90625zm0 -30.140623q-1.765625 0 -2.75 -0.875q-0.984375 -0.890625 -0.984375 -2.46875q0 -1.609375 0.984375 -2.46875q0.984375 -0.859375 2.75 -0.859375q1.8125 0 2.765625 0.859375q0.96875 0.859375 0.96875 2.46875q0 1.578125 -0.96875 2.46875q-0.953125 0.875 -2.765625 0.875zm12.893404 30.187498q-1.515625 0 -2.328125 -0.828125q-0.8125 -0.84375 -0.8125 -2.40625l0 -19.109375q0 -1.5781231 0.8125 -2.374998q0.8125 -0.8125 2.28125 -0.8125q1.46875 0 2.265625 0.8125q0.8125 0.796875 0.8125 2.374998l0 3.4375l-0.546875 -1.265625q1.109375 -2.6875 3.453125 -4.078123q2.359375 -1.390625 5.34375 -1.390625q2.984375 0 4.890625 1.125q1.921875 1.1093731 2.875 3.359373q0.96875 2.25 0.96875 5.6875l0 12.234375q0 1.5625 -0.8125 2.40625q-0.796875 0.828125 -2.3125 0.828125q-1.515625 0 -2.359375 -0.828125q-0.828125 -0.84375 -0.828125 -2.40625l0 -11.9375q0 -2.875 -1.09375 -4.1875q-1.078125 -1.328125 -3.359375 -1.328125q-2.78125 0 -4.421875 1.75q-1.640625 1.75 -1.640625 4.625l0 11.078125q0 3.234375 -3.1875 3.234375z" fill-rule="nonzero"/></g></svg>